<?xml version="1.0" standalone="no"?>
<!DOCTYPE svg PUBLIC "-//W3C//DTD SVG 20010904//EN"
 "http://www.w3.org/TR/2001/REC-SVG-20010904/DTD/svg10.dtd">
<svg version="1.0" xmlns="http://www.w3.org/2000/svg"
 width="2024.000000pt" height="2020.000000pt" viewBox="0 0 2024.000000 2020.000000"
 preserveAspectRatio="xMidYMid meet">

<g transform="translate(0.000000,2020.000000) scale(0.100000,-0.100000)"
fill="#000000" stroke="none">
<path d="M0 10100 l0 -10100 10120 0 10120 0 0 6114 0 6113 -41 6 c-31 4 -52
16 -83 46 -23 23 -46 41 -52 41 -6 0 -29 17 -52 38 -42 38 -70 97 -79 165 -8
57 -1 66 44 56 21 -4 52 -11 68 -14 51 -11 153 -65 175 -92 l20 -26 0 3877 0
3876 -10120 0 -10120 0 0 -10100z m15933 8588 c72 -127 59 -339 -39 -613 -16
-44 -39 -95 -52 -113 -22 -30 -23 -37 -17 -154 3 -68 12 -188 20 -268 8 -80
19 -212 25 -295 6 -82 20 -256 31 -385 28 -321 29 -349 18 -355 -5 -4 -9 5 -9
19 0 13 -11 81 -25 150 -14 69 -25 139 -25 155 0 17 -4 33 -10 36 -5 3 -10 18
-11 33 0 24 -1 25 -9 7 -5 -11 -9 -15 -9 -8 -1 6 -10 15 -21 18 -16 5 -20 15
-20 46 0 32 -3 39 -20 39 -11 0 -20 7 -20 15 0 10 -10 15 -29 15 -17 0 -33 5
-37 11 -3 6 -10 48 -15 93 -24 245 -30 295 -39 331 -5 22 -12 75 -15 117 -10
138 -45 181 -145 181 -34 0 -65 -6 -80 -16 -14 -9 -57 -29 -95 -45 -39 -16
-104 -45 -145 -64 -41 -20 -104 -48 -140 -63 -111 -47 -154 -66 -193 -86 -21
-10 -46 -19 -56 -19 -10 0 -24 -6 -30 -14 -6 -7 -33 -21 -59 -31 -26 -10 -73
-31 -105 -46 -32 -15 -73 -33 -92 -39 -19 -6 -65 -26 -102 -44 -38 -18 -99
-45 -138 -61 -38 -15 -89 -36 -112 -47 -24 -10 -62 -27 -85 -38 -24 -10 -81
-36 -127 -57 -45 -20 -92 -36 -102 -36 -10 1 -19 -2 -19 -6 0 -4 -24 -18 -52
-31 -29 -13 -71 -31 -93 -41 -202 -92 -350 -156 -353 -154 -17 16 55 59 163
96 75 26 123 47 130 59 3 5 14 10 24 10 10 0 24 7 31 15 7 8 21 15 32 15 25 0
111 39 120 55 4 7 23 16 41 19 18 3 43 15 55 26 12 11 31 20 44 20 28 1 58 22
58 42 0 8 -7 15 -15 15 -8 0 -15 -4 -15 -9 0 -4 -17 -8 -38 -8 -21 0 -47 -7
-59 -15 -16 -11 -37 -14 -77 -10 -42 4 -56 3 -56 -7 0 -9 -3 -9 -10 2 -8 12
-10 11 -10 -7 0 -22 -32 -48 -44 -36 -10 11 -46 -29 -46 -52 0 -20 -4 -21 -49
-19 -27 2 -53 4 -58 5 -19 5 -69 -16 -93 -38 -28 -26 -34 -27 -60 -13 -13 7
-22 6 -32 -4 -8 -7 -25 -17 -38 -21 -14 -4 -62 -25 -107 -46 -46 -22 -91 -39
-102 -39 -11 0 -26 -6 -33 -12 -7 -7 -20 -14 -28 -16 -8 -2 -21 -11 -28 -20
-11 -15 -14 -15 -23 -2 -8 13 -11 12 -24 -4 -11 -15 -22 -17 -54 -12 -35 5
-42 3 -63 -23 -33 -39 -62 -53 -76 -39 -8 8 -13 7 -18 -5 -3 -9 -17 -17 -29
-17 -13 0 -27 -4 -30 -10 -3 -5 -16 -10 -28 -10 -13 0 -26 -9 -32 -22 -11 -26
-68 -46 -132 -47 -29 -1 -48 -7 -61 -21 -11 -12 -34 -21 -58 -23 -21 -1 -41
-4 -44 -7 -13 -13 -51 -29 -84 -35 -20 -4 -36 -11 -36 -15 0 -8 -41 -25 -49
-21 -2 2 -7 -3 -12 -10 -5 -9 -10 -4 -15 16 -8 34 18 61 72 71 19 3 34 10 34
15 0 5 9 9 19 9 11 0 22 4 26 9 3 5 20 13 37 16 18 4 38 14 46 21 7 8 24 14
38 14 13 0 24 4 24 9 0 4 19 17 43 28 119 57 179 83 192 83 8 0 15 5 15 10 0
6 8 10 17 10 9 0 46 14 82 31 153 73 330 149 346 149 6 0 26 10 45 22 37 23
151 76 235 110 28 11 77 33 110 48 33 16 98 44 145 63 81 33 164 69 203 89 10
5 71 32 135 59 64 28 142 62 172 76 30 14 71 32 90 40 65 28 125 55 165 73 69
32 148 67 205 90 30 12 82 35 115 50 52 24 249 112 400 180 28 12 59 25 70 29
19 7 42 18 155 71 25 11 86 37 135 57 50 20 95 40 101 45 14 10 106 28 116 22
5 -3 4 -13 -2 -24 -7 -13 -6 -21 4 -29 17 -15 63 -4 70 15 5 14 1 17 -42 30
-21 6 -9 26 25 45 28 16 32 16 37 3 3 -9 3 -33 0 -55 -5 -32 -4 -39 9 -39 9 0
22 10 29 23 25 45 70 163 84 222 18 77 17 227 -1 330 -17 94 -16 85 -10 85 2
0 15 -19 28 -42z m-179 -454 c5 -14 4 -15 -9 -4 -17 14 -19 20 -6 20 5 0 12
-7 15 -16z m-319 -554 c3 -5 11 -61 17 -124 9 -95 9 -118 -2 -132 -14 -16
-140 -78 -235 -116 -27 -11 -91 -40 -142 -64 -51 -24 -94 -44 -97 -44 -2 0
-64 -26 -138 -59 -73 -32 -178 -77 -233 -101 -55 -23 -119 -51 -142 -61 -23
-11 -47 -19 -53 -19 -6 0 -20 -9 -32 -20 -12 -11 -29 -20 -39 -20 -9 0 -22 -6
-28 -14 -6 -7 -32 -19 -56 -26 -25 -7 -45 -16 -45 -20 0 -4 -12 -10 -27 -13
-36 -7 -163 -52 -220 -78 -24 -11 -58 -22 -76 -26 -17 -3 -36 -9 -42 -13 -5
-4 -32 -15 -59 -24 -48 -16 -50 -15 -72 5 -13 13 -43 23 -78 28 -31 4 -59 8
-61 9 -3 1 -22 2 -43 2 -38 0 -38 0 -37 40 1 33 7 44 35 65 19 14 38 25 42 25
10 0 57 20 173 75 78 37 414 187 515 230 36 16 144 64 240 108 96 44 184 83
195 87 11 4 64 29 118 54 53 25 99 46 102 46 2 0 43 18 90 40 47 22 87 40 90
40 2 0 41 18 87 39 188 88 239 104 253 81z m282 -712 c-3 -7 -5 -2 -5 12 0 14
2 19 5 13 2 -7 2 -19 0 -25z m-2467 -158 c-14 -10 -35 -22 -48 -25 -12 -3 -53
-20 -90 -38 -68 -34 -171 -71 -178 -65 -9 10 18 27 86 53 41 15 91 38 110 50
33 21 96 42 130 44 9 0 6 -7 -10 -19z m150 -229 c0 -10 -7 -21 -15 -25 -11 -4
-15 1 -15 19 0 16 6 25 15 25 8 0 15 -9 15 -19z m-1453 -111 c-2 -23 -12 -26
-20 -6 -3 8 -1 17 6 20 7 2 13 5 14 5 1 1 1 -8 0 -19z m-87 -40 c13 -9 12 -12
-4 -25 -11 -8 -35 -15 -53 -15 -18 0 -33 -4 -33 -10 0 -5 -9 -10 -19 -10 -11
0 -23 5 -26 10 -3 6 3 10 14 10 11 0 24 6 28 14 8 14 47 34 68 35 6 0 17 -4
25 -9z m-185 -70 c-3 -5 -14 -10 -23 -10 -15 0 -15 2 -2 10 20 13 33 13 25 0z
m-251 -115 c-4 -8 -14 -15 -24 -15 -9 0 -29 -11 -44 -25 -27 -25 -74 -36 -61
-14 5 8 118 67 132 69 1 0 0 -7 -3 -15z m-134 -85 c0 -5 -12 -10 -27 -10 -22
0 -25 2 -13 10 20 13 40 13 40 0z m5743 -32 c78 -31 167 -98 167 -126 0 -6 7
-12 15 -12 8 0 15 -6 15 -13 0 -7 9 -18 19 -24 44 -28 221 -334 221 -384 0 -9
3 -19 7 -23 9 -9 33 -77 33 -95 0 -8 8 -33 18 -55 47 -105 73 -199 75 -276 2
-39 -1 -45 -18 -45 -45 -1 -76 27 -149 137 -76 116 -139 186 -190 212 -23 12
-33 12 -58 1 -27 -11 -35 -10 -72 11 -22 13 -47 24 -55 24 -7 0 -36 16 -62 35
-27 19 -53 35 -58 35 -6 0 -10 -17 -9 -38 0 -21 -7 -59 -16 -86 -11 -31 -14
-61 -10 -85 8 -41 59 -148 111 -230 116 -180 166 -253 212 -306 29 -32 57 -69
64 -81 7 -13 33 -54 59 -93 66 -97 81 -140 76 -207 -4 -43 -11 -61 -34 -85
-27 -29 -32 -31 -85 -25 -40 4 -61 1 -75 -9 -28 -21 -38 -19 -81 23 -56 55
-87 97 -126 177 -58 117 -57 150 4 125 16 -7 32 -11 34 -8 4 3 -8 92 -19 143
-4 19 -27 90 -36 110 -66 149 -180 422 -180 430 0 6 -9 30 -20 52 -33 69 -35
113 -9 154 13 19 37 44 54 55 51 33 45 58 -40 158 -41 48 -75 91 -75 95 0 4
-14 22 -31 39 -31 31 -31 32 -14 58 17 26 17 28 -24 105 -77 148 -60 166 146
161 126 -3 143 -6 216 -34z m-5823 17 c-1 -5 -7 -9 -14 -7 -7 1 -21 -6 -32
-16 -13 -13 -22 -15 -30 -8 -9 8 -4 15 19 28 34 18 59 20 57 3z m-243 -100 c8
-21 -1 -28 -27 -20 -17 5 -19 10 -9 21 15 18 28 18 36 -1z m5366 -259 c10 -8
14 -17 9 -20 -6 -3 -8 -15 -5 -26 4 -15 0 -20 -14 -20 -19 0 -43 36 -43 65 0
19 29 19 53 1z m-743 -204 c0 -11 -22 -32 -32 -32 -5 0 -4 9 2 20 11 20 30 28
30 12z m-4110 -42 c0 -5 -8 -10 -17 -10 -15 0 -16 2 -3 10 19 12 20 12 20 0z
m4863 -18 c53 -32 72 -132 37 -189 -17 -29 -25 -33 -62 -33 -51 0 -60 5 -93
50 -19 26 -25 46 -25 88 0 62 15 82 69 93 20 4 38 7 41 8 3 0 18 -7 33 -17z
m-5015 -129 c5 -16 15 -73 22 -128 7 -55 16 -120 22 -145 11 -53 52 -298 74
-449 9 -59 22 -144 30 -191 31 -196 36 -254 25 -282 -6 -16 -15 -28 -21 -28
-20 0 -59 106 -69 190 -14 111 -17 129 -35 230 -8 47 -20 114 -26 150 -6 36
-26 158 -45 271 -42 254 -52 358 -36 387 16 31 46 28 59 -5z m-161 -178 c13
-72 28 -155 34 -185 5 -30 17 -102 26 -160 8 -58 19 -127 23 -155 5 -27 13
-82 19 -121 5 -39 15 -100 21 -135 42 -244 49 -339 27 -358 -35 -28 -62 51
-97 279 -6 41 -16 104 -22 140 -13 88 -20 128 -67 400 -53 305 -59 371 -37
405 34 52 49 30 73 -110z m331 70 c7 -14 12 -34 12 -44 0 -10 7 -34 15 -54 8
-19 19 -59 24 -88 5 -30 16 -83 24 -119 9 -36 21 -105 27 -155 6 -49 22 -148
35 -220 41 -229 47 -272 40 -309 -9 -45 -18 -51 -39 -27 -18 19 -52 172 -61
270 -3 31 -10 79 -16 106 -10 47 -44 285 -73 512 -8 55 -17 106 -21 113 -8 13
1 40 13 40 5 0 14 -11 20 -25z m-534 -37 c9 -12 16 -41 16 -63 0 -22 6 -65 14
-95 7 -30 17 -82 20 -115 4 -33 14 -94 22 -136 15 -75 23 -123 63 -379 44
-286 51 -336 51 -387 0 -50 -2 -54 -22 -51 -27 4 -49 71 -79 243 -31 181 -54
319 -73 425 -9 52 -23 136 -32 185 -8 50 -20 110 -25 135 -6 25 -13 87 -16
139 -5 84 -4 95 12 107 25 19 31 18 49 -8z m5194 -65 c4 -41 -9 -42 -49 -4
-32 31 -26 42 21 38 20 -2 26 -8 28 -34z m-5370 10 c5 -10 13 -56 16 -103 4
-47 12 -103 18 -125 6 -22 16 -76 23 -120 7 -44 25 -154 39 -245 15 -91 29
-172 32 -180 3 -8 12 -58 19 -110 25 -177 35 -242 40 -250 3 -5 2 -34 -1 -65
-5 -44 -10 -55 -23 -53 -29 6 -58 98 -81 253 -4 33 -13 83 -18 110 -16 75 -41
222 -52 295 -8 58 -20 124 -65 370 -24 128 -18 225 14 233 28 8 30 7 39 -10z
m-174 -80 c2 -10 8 -49 11 -88 4 -38 16 -119 26 -180 11 -60 31 -177 44 -260
14 -82 30 -172 35 -200 25 -116 64 -376 67 -447 4 -70 3 -78 -14 -78 -24 0
-63 69 -63 112 0 18 -4 49 -10 68 -10 39 -58 294 -70 380 -10 68 -55 318 -75
420 -26 129 -36 229 -25 250 20 38 65 51 74 23z m4313 -69 c-3 -3 -12 -4 -19
-1 -8 3 -5 6 6 6 11 1 17 -2 13 -5z m-4503 -26 c8 -13 17 -48 21 -78 3 -30 12
-89 20 -130 8 -41 21 -120 30 -175 8 -55 24 -147 35 -205 10 -58 28 -166 40
-240 12 -74 30 -175 40 -225 11 -57 16 -106 11 -135 -16 -111 -72 -17 -101
169 -19 122 -53 313 -70 391 -5 25 -24 124 -41 220 -17 96 -35 198 -40 225
-21 117 -22 153 -5 180 20 31 41 32 60 3z m4431 -8 c-3 -5 -14 -10 -23 -9 -14
0 -13 2 3 9 27 11 27 11 20 0z m1305 0 c0 -5 -5 -10 -11 -10 -5 0 -7 5 -4 10
3 6 8 10 11 10 2 0 4 -4 4 -10z m-1351 -14 c-2 -2 -15 -9 -29 -15 -24 -11 -24
-11 -6 3 16 13 49 24 35 12z m-82 -42 c-16 -9 -31 -13 -34 -10 -3 3 5 10 18
15 37 15 47 12 16 -5z m-4484 -11 c9 -11 18 -48 22 -93 4 -41 11 -79 15 -85 4
-5 10 -37 14 -70 4 -33 13 -94 21 -135 43 -231 55 -303 65 -375 6 -44 14 -96
19 -115 5 -19 19 -93 30 -165 20 -130 18 -194 -6 -202 -11 -4 -41 51 -57 102
-6 21 -51 266 -67 370 -5 33 -16 92 -24 130 -8 39 -21 106 -30 150 -9 44 -20
103 -26 130 -20 99 -42 261 -42 302 1 66 32 92 66 56z m7698 -53 c43 -23 95
-90 109 -141 6 -20 11 -68 13 -105 1 -38 6 -75 11 -82 4 -7 11 -25 16 -40 7
-27 6 -28 -21 -24 -16 2 -26 8 -23 13 3 5 -2 6 -12 2 -13 -5 -15 -2 -9 18 5
18 4 21 -4 9 -6 -8 -11 -22 -11 -31 0 -9 -7 -22 -15 -29 -8 -7 -12 -16 -9 -22
3 -5 0 -15 -6 -23 -7 -8 -16 -49 -21 -90 -4 -41 -15 -85 -24 -97 -9 -13 -15
-44 -15 -74 0 -89 -52 -77 -86 19 -8 23 -29 69 -46 102 -28 54 -64 192 -53
203 2 3 -2 17 -10 33 -12 21 -14 52 -9 131 3 57 9 107 15 113 5 5 9 20 9 32 0
43 37 101 67 106 41 7 92 -2 134 -23z m-2236 -10 c-4 -7 -63 -40 -70 -40 -2 0
-5 11 -7 25 -4 21 -1 25 18 25 12 0 26 5 29 10 5 8 11 7 21 -1 7 -6 11 -15 9
-19z m-5636 -18 c5 -10 13 -47 16 -82 9 -82 11 -98 24 -135 5 -16 20 -93 31
-170 12 -77 26 -162 31 -190 21 -111 29 -153 39 -220 6 -38 18 -101 25 -140
37 -191 44 -292 20 -301 -21 -8 -45 14 -45 40 0 12 -7 31 -15 43 -9 12 -22 69
-30 126 -8 58 -19 116 -24 129 -5 13 -12 51 -16 84 -3 32 -15 95 -25 139 -10
44 -30 148 -45 230 -15 83 -33 179 -41 215 -29 131 -34 203 -18 227 18 28 59
30 73 5z m5789 -34 c48 -26 50 -42 3 -46 -35 -4 -60 17 -61 51 0 22 6 22 58
-5z m-358 -8 c0 -5 -4 -10 -10 -10 -5 0 -10 5 -10 10 0 6 5 10 10 10 6 0 10
-4 10 -10z m-1220 -70 c-8 -5 -22 -9 -30 -9 -10 0 -8 3 5 9 27 12 43 12 25 0z
m-90 -40 c0 -5 -7 -10 -16 -10 -8 0 -12 5 -9 10 3 6 10 10 16 10 5 0 9 -4 9
-10z m-60 -25 c-7 -8 -18 -15 -25 -15 -6 0 -33 -11 -59 -25 -26 -14 -52 -25
-59 -25 -12 1 130 76 147 79 5 0 3 -6 -4 -14z m-160 -69 c0 -5 -60 -36 -69
-36 -3 0 8 9 24 20 29 19 45 25 45 16z m-83 -42 c-3 -3 -12 -4 -19 -1 -8 3 -5
6 6 6 11 1 17 -2 13 -5z m-2073 -99 c15 -89 18 -125 8 -125 -24 0 -33 31 -48
160 l-5 45 20 -25 c11 -14 22 -38 25 -55z m1931 35 c-33 -16 -67 -29 -75 -29
-21 0 102 57 125 58 6 0 -17 -13 -50 -29z m-425 10 c-8 -5 -19 -10 -25 -10 -5
0 -3 5 5 10 8 5 20 10 25 10 6 0 3 -5 -5 -10z m286 -69 c-6 -9 -46 -22 -46
-15 0 3 10 9 23 14 29 11 29 11 23 1z m2213 -27 c-28 -30 -69 -32 -69 -4 0 13
9 22 28 26 15 3 32 7 37 9 23 6 25 -9 4 -31z m-2319 -24 c-8 -5 -22 -10 -30
-10 -13 0 -13 1 0 10 8 5 22 10 30 10 13 0 13 -1 0 -10z m-100 -44 c-19 -6
-42 -15 -50 -20 -13 -8 -13 -7 -2 6 13 16 38 25 72 26 8 0 -1 -5 -20 -12z
m-327 -46 c21 -35 52 -45 107 -36 53 8 51 0 -2 -15 -57 -15 -113 2 -133 40
-13 26 -11 41 5 41 3 0 14 -13 23 -30z m1417 26 c0 -3 -4 -8 -10 -11 -5 -3
-10 -1 -10 4 0 6 5 11 10 11 6 0 10 -2 10 -4z m-2566 -41 c-7 -18 -8 -18 -14
1 -9 23 -1 39 11 27 6 -6 6 -18 3 -28z m1396 25 c-8 -5 -19 -10 -25 -10 -5 0
-3 5 5 10 8 5 20 10 25 10 6 0 3 -5 -5 -10z m948 -100 c-26 -22 -48 -26 -48
-7 1 15 64 48 68 35 2 -4 -7 -17 -20 -28z m-2508 23 c0 -5 -5 -15 -10 -23 -8
-12 -10 -11 -10 8 0 12 5 22 10 22 6 0 10 -3 10 -7z m6503 -111 c9 -26 17 -66
17 -90 0 -43 0 -44 -30 -37 -19 4 -36 2 -45 -5 -21 -17 -28 7 -22 67 14 132
47 159 80 65z m-6163 13 c0 -9 -65 -45 -80 -44 -8 0 -1 7 17 15 17 7 34 18 38
24 6 10 25 14 25 5z m3247 -25 c14 -11 20 -20 14 -20 -19 0 -51 19 -51 30 0
15 9 12 37 -10z m-1300 -30 c-1 -18 -3 -18 -19 -3 -19 17 -15 35 7 27 7 -3 13
-14 12 -24z m-93 5 c-7 -17 -20 -20 -29 -6 -3 5 3 12 12 14 10 3 19 5 20 6 1
0 0 -6 -3 -14z m-1994 -24 c-8 -5 -26 -11 -40 -15 -21 -5 -20 -3 5 9 32 15 60
20 35 6z m-115 -51 c-27 -12 -43 -12 -25 0 8 5 22 9 30 9 10 0 8 -3 -5 -9z
m6846 -119 c16 -12 31 -21 35 -21 24 0 117 -55 141 -84 15 -19 45 -44 66 -56
20 -12 37 -26 37 -31 0 -4 14 -24 30 -42 33 -38 38 -76 17 -136 -10 -28 -18
-35 -43 -38 -38 -5 -86 31 -109 81 -9 18 -75 91 -147 162 -72 71 -142 144
-157 163 l-26 34 64 -6 c42 -3 74 -13 92 -26z m-7814 -56 c-4 -8 -11 -15 -17
-15 -7 0 -7 6 0 21 13 23 26 19 17 -6z m2618 -5 c27 -30 13 -34 -31 -9 -52 28
-52 29 -17 29 17 0 38 -8 48 -20z m-95 -10 c0 -17 -7 -20 -42 -20 -40 0 -41 0
-23 20 10 11 29 20 42 20 16 0 23 -6 23 -20z m-4220 -31 c0 -23 -22 -49 -40
-49 -24 0 -25 8 -4 38 16 23 44 30 44 11z m1511 -42 c-8 -8 -11 -7 -11 4 0 9
3 19 7 23 4 4 9 2 11 -4 3 -7 -1 -17 -7 -23z m-1391 -6 c7 -15 6 -23 -6 -35
-31 -32 -61 -14 -50 30 8 29 41 32 56 5z m3932 6 c-12 -14 -62 -21 -62 -9 0
15 13 22 43 22 23 0 27 -3 19 -13z m368 -18 c0 -6 -4 -7 -10 -4 -5 3 -10 11
-10 16 0 6 5 7 10 4 6 -3 10 -11 10 -16z m-3080 -45 c0 -8 -5 -12 -10 -9 -6 4
-8 11 -5 16 9 14 15 11 15 -7z m3285 -14 c3 -5 2 -10 -4 -10 -5 0 -13 5 -16
10 -3 6 -2 10 4 10 5 0 13 -4 16 -10z m-673 -33 c20 -15 25 -26 19 -36 -7 -11
-15 -9 -40 10 -31 23 -41 49 -18 49 6 0 24 -10 39 -23z m-202 -5 c0 -15 -50
-52 -71 -52 -26 0 -16 16 25 41 34 21 46 24 46 11z m-122 -68 c-10 -10 -23
-14 -34 -10 -16 6 -16 8 -4 16 8 6 24 10 35 10 18 0 18 -1 3 -16z m6457 -65
c55 -27 77 -44 103 -83 39 -56 92 -178 92 -210 0 -12 6 -28 13 -35 10 -11 10
-13 0 -7 -8 4 -13 2 -13 -6 0 -10 -2 -10 -9 1 -6 9 -11 10 -15 2 -4 -6 -5 -15
-2 -20 7 -11 -8 -9 -56 9 -28 10 -55 36 -105 103 -96 125 -96 126 -137 189
-52 82 -48 103 19 95 22 -2 71 -20 110 -38z m-6445 -19 c0 -5 -4 -10 -10 -10
-5 0 -10 5 -10 10 0 6 5 10 10 10 6 0 10 -4 10 -10z m710 -24 c0 -3 -4 -8 -10
-11 -5 -3 -10 -1 -10 4 0 6 5 11 10 11 6 0 10 -2 10 -4z m67 -42 c-9 -10 -38
16 -31 28 4 6 13 4 22 -6 9 -8 13 -19 9 -22z m1387 -9 c15 -19 22 -35 16 -35
-15 0 -80 50 -80 61 0 22 40 6 64 -26z m-4959 -105 c10 -11 13 -20 7 -20 -6 0
-16 9 -22 20 -6 11 -9 20 -7 20 2 0 12 -9 22 -20z m2355 0 c0 -5 -4 -10 -10
-10 -5 0 -10 5 -10 10 0 6 5 10 10 10 6 0 10 -4 10 -10z m2500 -5 c58 -30 76
-104 39 -156 -21 -31 -50 -37 -67 -16 -12 15 -27 161 -18 176 9 14 11 14 46
-4z m-2335 -15 c3 -5 2 -10 -4 -10 -5 0 -13 5 -16 10 -3 6 -2 10 4 10 5 0 13
-4 16 -10z m356 -3 c-1 -12 -15 -9 -19 4 -3 6 1 10 8 8 6 -3 11 -8 11 -12z
m-821 -55 c0 -13 -12 -22 -22 -16 -10 6 -1 24 13 24 5 0 9 -4 9 -8z m-145 -37
c28 -4 59 -10 70 -15 11 -4 53 -13 92 -20 40 -6 75 -16 78 -20 3 -5 12 -7 19
-4 17 7 89 -12 140 -37 22 -10 46 -19 53 -19 8 0 36 -11 63 -25 27 -14 55 -25
63 -25 13 0 89 -33 117 -50 8 -6 35 -20 60 -33 81 -41 189 -107 197 -120 4 -7
20 -20 35 -30 39 -25 184 -154 237 -211 25 -27 55 -57 65 -65 53 -43 166 -208
166 -243 0 -42 -54 -11 -315 177 -77 56 -170 122 -207 148 -67 47 -279 157
-352 183 -22 8 -44 18 -50 23 -13 10 -141 52 -256 85 -122 34 -239 53 -445 72
-154 14 -204 15 -350 5 -300 -21 -407 -36 -585 -78 -79 -18 -200 -44 -220 -47
-9 -1 -20 -5 -25 -8 -6 -3 -54 -20 -108 -37 -53 -17 -105 -35 -115 -40 -9 -5
-41 -16 -71 -25 -80 -23 -46 4 49 39 41 15 89 33 105 40 60 25 352 113 425
129 41 9 108 23 148 31 112 24 414 55 537 56 181 1 88 18 -112 21 -322 4 -534
-8 -673 -38 -161 -34 -181 -38 -290 -69 -66 -18 -274 -87 -315 -104 -63 -26
-78 -31 -83 -26 -7 6 -9 4 61 38 31 15 66 27 76 27 10 0 24 7 31 15 7 8 17 15
23 15 5 0 54 18 108 39 53 22 112 42 131 45 18 3 57 15 86 26 29 11 61 20 72
20 16 0 19 5 14 24 -5 20 0 27 27 40 18 9 43 16 57 16 14 0 33 7 43 16 16 14
191 49 354 69 184 24 530 19 770 -10z m-1352 -130 c-3 -9 -8 -14 -10 -11 -3 3
-2 9 2 15 9 16 15 13 8 -4z m9151 -34 c110 -50 177 -168 177 -315 1 -32 -3
-62 -8 -67 -4 -4 -26 -4 -48 1 -29 6 -51 22 -83 57 -53 60 -177 303 -168 330
9 29 58 27 130 -6z m-8098 -172 c8 -14 -18 -31 -30 -19 -9 9 0 30 14 30 5 0
12 -5 16 -11z m-1411 -149 c-3 -5 -13 -10 -21 -10 -9 0 -22 -7 -30 -15 -15
-14 -54 -21 -54 -10 0 7 81 43 98 44 7 1 10 -3 7 -9z m-121 -51 c-6 -11 -138
-73 -140 -67 -1 2 -10 -4 -20 -13 -17 -14 -87 -39 -74 -26 11 11 216 115 228
116 7 1 10 -4 6 -10z m2026 -189 c0 -5 -4 -10 -10 -10 -5 0 -10 5 -10 10 0 6
5 10 10 10 6 0 10 -4 10 -10z m965 -135 c39 -14 84 -32 100 -40 277 -129 324
-157 480 -285 55 -45 203 -198 234 -241 41 -56 40 -69 -6 -69 -37 0 -78 19
-123 57 -51 42 -67 56 -100 87 -168 153 -367 274 -635 386 -55 22 -113 47
-130 55 -28 13 -29 14 -5 12 22 -2 25 2 26 33 1 19 2 38 3 41 2 10 81 -8 156
-36z m1765 -115 c9 -17 8 -20 -8 -20 -18 0 -42 18 -42 32 0 17 40 7 50 -12z
m-1427 -377 c43 -13 86 -21 96 -18 11 3 25 0 33 -7 7 -7 34 -23 59 -36 45 -22
149 -110 149 -126 0 -11 -36 2 -105 37 -33 17 -130 65 -215 108 -156 79 -159
86 -17 42z m1955 -214 c24 -5 53 -15 65 -23 12 -7 44 -16 70 -20 26 -3 73 -17
105 -32 93 -42 187 -88 192 -94 3 -3 35 -20 72 -39 37 -18 79 -44 93 -57 14
-13 32 -24 38 -24 37 0 396 -333 460 -427 12 -17 49 -71 81 -120 33 -48 74
-105 93 -126 18 -20 33 -44 33 -51 0 -8 18 -50 40 -92 22 -43 40 -87 40 -98 0
-12 21 -52 46 -91 41 -64 153 -281 187 -365 34 -82 59 -161 54 -167 -4 -3 1
-12 11 -19 9 -7 13 -16 9 -21 -10 -9 -39 26 -62 75 -9 18 -29 47 -44 65 -16
18 -37 48 -47 67 -66 122 -313 391 -481 521 -56 44 -108 86 -115 92 -7 7 -40
30 -73 51 -33 21 -72 47 -87 57 -110 76 -393 222 -548 284 -52 21 -113 47
-135 58 -22 11 -47 23 -55 27 -8 4 -17 18 -20 31 -4 15 -23 33 -53 50 -62 33
-66 38 -71 80 -3 20 -17 48 -33 66 -16 17 -35 49 -43 72 -7 23 -19 46 -27 52
-7 6 -13 18 -13 25 0 8 -4 14 -10 14 -5 0 -14 18 -20 41 -7 24 -25 54 -46 72
-40 37 -45 73 -11 80 35 7 257 -3 305 -14z m-2158 -1404 c25 -13 30 -22 30
-53 0 -21 -7 -47 -15 -58 -8 -10 -15 -27 -15 -36 0 -33 -43 -69 -87 -75 -45
-6 -102 11 -104 31 -1 6 -3 22 -4 36 -5 47 59 146 105 163 28 10 61 7 90 -8z
m-235 -54 c-3 -20 -9 -57 -12 -84 -8 -75 -54 -87 -88 -23 -10 19 -31 41 -47
50 -22 14 -28 24 -28 52 0 45 21 45 71 -1 55 -50 79 -44 79 19 0 14 6 23 16
23 13 0 15 -7 9 -36z m375 5 c0 -7 -11 -30 -25 -50 -14 -20 -25 -41 -25 -46 0
-6 -4 -10 -10 -10 -16 0 -12 17 15 70 24 48 45 65 45 36z m203 -40 c30 -13 57
-28 61 -34 10 -16 -14 -27 -58 -27 -34 0 -40 -4 -49 -30 -6 -16 -16 -36 -24
-43 -7 -7 -16 -24 -19 -38 -4 -13 -15 -29 -25 -35 -33 -17 -23 28 18 88 39 57
48 83 30 83 -7 0 -21 7 -31 15 -16 12 -17 17 -6 30 17 21 41 19 103 -9z m-755
-86 c-2 -28 -8 -36 -25 -38 -19 -3 -23 1 -23 22 0 14 8 41 17 61 16 35 18 35
26 13 4 -12 7 -38 5 -58z m-115 18 c5 -37 0 -51 -14 -43 -12 8 -12 75 0 75 5
0 11 -15 14 -32z m-103 -68 c-9 -16 -15 -18 -30 -10 -19 10 -18 42 3 68 17 21
41 -32 27 -58z m712 42 c3 -11 22 -23 47 -30 29 -9 41 -18 41 -31 0 -27 -23
-32 -80 -20 -66 14 -78 30 -50 69 24 34 36 38 42 12z m438 -12 c0 -10 -7 -35
-16 -56 -18 -44 -24 -65 -31 -114 -9 -56 -43 -65 -43 -11 0 36 -41 56 -94 46
-47 -9 -49 13 -5 46 17 13 54 42 82 65 29 22 59 43 67 46 22 8 40 -2 40 -22z
m-1246 14 c9 -3 16 -17 16 -30 0 -28 -39 -57 -64 -48 -23 9 -20 50 6 68 26 19
22 18 42 10z m-111 -67 c7 -18 -8 -41 -21 -33 -11 7 -4 46 8 46 4 0 10 -6 13
-13z m54 -200 c62 -65 64 -96 15 -199 -21 -45 -42 -93 -46 -105 -4 -13 -12
-23 -17 -23 -5 0 -9 -6 -9 -14 0 -8 -6 -21 -13 -28 -7 -7 -30 -47 -51 -88 -21
-41 -50 -86 -64 -99 -15 -13 -52 -47 -83 -76 -30 -30 -67 -57 -82 -60 -15 -4
-30 -11 -33 -16 -8 -14 -130 -69 -167 -76 -17 -3 -37 -10 -44 -15 -6 -5 -45
-12 -87 -15 l-74 -6 4 34 c6 53 21 108 34 124 6 8 9 18 6 23 -3 6 5 17 19 26
18 12 25 25 25 47 0 18 4 28 10 24 6 -3 10 1 10 10 0 10 5 13 12 9 7 -5 9 -2
6 7 -11 29 10 116 35 143 25 27 47 93 47 140 0 16 6 26 15 26 8 0 15 7 15 15
0 8 12 22 28 32 15 10 52 39 83 65 36 32 94 65 170 98 144 63 174 63 236 -3z
m421 -282 c7 -14 12 -32 12 -40 0 -8 5 -15 10 -15 6 0 10 -15 10 -32 -1 -24
-8 -38 -26 -51 -14 -11 -27 -17 -30 -15 -11 12 -8 178 4 178 5 0 14 -11 20
-25z m-2098 -1315 c13 -8 13 -10 -2 -10 -9 0 -20 5 -23 10 -8 13 5 13 25 0z
m-250 -92 c-1 -7 -9 -67 -19 -133 -10 -67 -14 -124 -10 -129 14 -16 11 -23
-21 -43 -52 -33 -118 -9 -75 27 8 7 17 28 21 49 4 20 14 45 24 56 10 11 21 44
25 73 4 28 11 52 16 52 5 0 9 11 9 23 0 13 3 27 7 30 10 11 23 8 23 -5z m3545
-193 c70 -15 76 -18 73 -32 -2 -9 -34 -26 -80 -41 -48 -16 -78 -32 -78 -40 0
-8 14 -31 30 -52 28 -36 39 -70 23 -70 -16 0 -139 21 -152 25 -10 4 -11 8 -2
19 8 10 24 12 51 9 46 -6 48 -2 19 38 -11 16 -18 36 -15 44 5 14 44 35 89 49
25 8 21 26 -5 26 -31 0 -52 15 -43 30 5 8 18 10 39 5 17 -3 40 -8 51 -10z
m-3608 -218 c7 -5 11 -13 8 -17 -3 -5 -1 -11 5 -15 7 -4 7 -12 0 -25 -5 -10
-10 -35 -10 -54 0 -20 -4 -36 -9 -36 -14 0 -33 28 -31 47 4 38 -1 52 -21 58
-28 9 -41 -11 -34 -53 8 -41 -8 -62 -46 -62 -34 0 -38 19 -9 45 11 10 20 24
20 32 0 18 30 63 54 84 20 16 50 15 73 -4z m843 -70 c0 -4 4 -5 10 -2 5 3 35
-2 67 -12 32 -9 67 -18 78 -20 11 -1 52 -9 90 -17 39 -8 86 -15 106 -16 20 0
42 -7 49 -15 10 -12 10 -15 -3 -15 -9 0 -19 5 -23 11 -4 8 -9 7 -15 -2 -10
-18 -116 -22 -144 -6 -28 16 -39 15 -47 -3 -5 -12 -7 -12 -7 2 -1 14 -8 17
-33 15 -38 -4 -67 8 -86 35 -7 10 -20 18 -29 18 -29 0 -92 23 -87 32 7 11 74
7 74 -5z m2577 -75 c-32 -61 -47 -76 -47 -47 0 25 67 122 77 111 1 -1 -12 -30
-30 -64z m-1997 8 c-12 -8 -12 -10 -1 -10 8 0 12 -2 10 -5 -3 -2 -16 -1 -29 2
-22 6 -23 7 -4 14 27 11 42 10 24 -1z m27 -12 c-3 -8 -6 -5 -6 6 -1 11 2 17 5
13 3 -3 4 -12 1 -19z m-104 5 c-7 -2 -19 -2 -25 0 -7 3 -2 5 12 5 14 0 19 -2
13 -5z m-1343 -72 c16 -31 12 -60 -15 -95 -33 -43 -32 -74 1 -86 21 -8 24 -14
17 -33 -4 -12 -7 -40 -6 -62 2 -60 -30 -70 -110 -35 -71 32 -70 54 5 80 20 8
41 24 47 37 15 32 15 32 -24 23 -66 -15 -105 6 -105 55 0 42 51 100 105 119
55 20 73 19 85 -3z m3374 -97 c5 -14 -88 -142 -110 -151 -24 -9 -61 6 -67 27
-4 15 -13 20 -36 20 -20 0 -31 5 -31 14 0 17 22 26 60 26 19 0 36 10 54 31 31
37 33 55 5 69 -16 9 -18 14 -8 26 10 12 20 9 70 -18 32 -18 61 -38 63 -44z
m-244 -179 c40 -21 41 -71 3 -131 -48 -76 -126 -96 -165 -43 -19 25 -19 26 0
70 21 48 50 79 97 103 36 19 30 19 65 1z m-3070 -155 c26 -36 21 -55 -23 -97
-47 -46 -80 -51 -112 -18 -14 16 -25 35 -25 44 0 8 19 35 42 58 52 53 87 57
118 13z m2840 -55 c0 -6 16 -28 35 -48 36 -37 46 -67 22 -67 -8 0 -24 11 -37
25 -12 13 -27 22 -33 18 -5 -3 -6 3 -2 16 4 14 2 23 -9 27 -16 6 -29 32 -21
44 7 12 45 0 45 -15z m-37 -139 c-8 -28 -17 -61 -20 -73 -3 -13 -12 -23 -19
-23 -18 0 -17 18 1 50 8 14 14 33 15 44 0 16 -6 18 -55 14 -30 -3 -55 -1 -55
4 0 4 0 11 -1 16 -1 12 42 20 97 20 l51 -1 -14 -51z m-183 -44 c0 -9 11 -30
25 -46 31 -36 40 -65 25 -80 -9 -8 -15 -7 -24 7 -33 54 -32 54 -61 -11 -15
-34 -31 -62 -34 -62 -4 0 -7 -10 -8 -21 -2 -27 -11 -35 -23 -23 -7 7 -3 24 10
49 29 57 26 65 -22 65 -51 0 -70 10 -58 29 6 11 23 12 72 7 63 -6 65 -5 76 20
10 20 9 29 -3 46 -10 16 -12 25 -4 35 14 16 29 8 29 -15z m-193 -183 c18 -36
7 -80 -30 -124 -38 -47 -86 -69 -122 -55 -30 11 -49 54 -40 90 9 34 52 90 71
90 7 0 14 4 14 9 0 12 27 20 65 18 22 -2 33 -9 42 -28z m-2057 -96 c-1 -28
-22 -37 -101 -39 -45 -2 -87 -8 -92 -13 -17 -17 23 -53 50 -48 30 6 37 -7 21
-33 -25 -39 -107 -13 -110 36 -3 29 21 81 40 90 10 4 41 10 70 13 l53 6 -20
22 c-24 25 -27 49 -8 56 12 5 97 -74 97 -90z m1796 -84 c6 -54 6 -83 -1 -88
-5 -5 -38 -23 -73 -41 -60 -31 -63 -32 -82 -15 -21 19 -26 50 -10 60 15 9 12
41 -5 55 -8 7 -15 19 -15 26 0 19 39 18 46 -1 8 -20 39 -19 77 3 18 9 33 18
35 18 1 1 -2 13 -7 27 -10 26 -6 37 14 37 7 0 15 -32 21 -81z m-1711 -29 c3
-6 -1 -13 -10 -16 -19 -8 -30 0 -20 15 8 14 22 14 30 1z m452 -6 c-3 -3 -12
-4 -19 -1 -8 3 -5 6 6 6 11 1 17 -2 13 -5z m-327 -15 c0 -6 -18 -31 -40 -56
-46 -53 -49 -66 -18 -87 14 -10 19 -19 13 -25 -14 -12 -94 -21 -100 -11 -6 10
123 190 136 190 5 0 9 -5 9 -11z m425 1 c25 -11 -1 -11 -35 0 -20 6 -21 8 -5
8 11 0 29 -3 40 -8z m-625 -76 c0 -8 -7 -14 -15 -14 -15 0 -21 21 -9 33 10 9
24 -2 24 -19z m389 -39 c-24 -40 -19 -76 6 -55 8 7 15 18 15 24 1 12 35 56 44
56 14 0 4 -26 -21 -52 -18 -19 -24 -31 -17 -38 17 -17 39 -2 57 35 9 19 21 35
27 35 16 0 12 -14 -15 -54 -14 -20 -25 -46 -25 -56 0 -24 -17 -25 -80 -6 -55
16 -61 38 -26 91 15 21 26 42 26 46 0 5 7 9 15 9 11 0 10 -7 -6 -35z m676 -6
c-4 -5 15 -9 42 -9 26 0 53 -4 60 -8 7 -5 -18 -36 -72 -91 -66 -66 -86 -81
-91 -68 -3 9 0 33 6 53 11 32 10 39 -4 49 -22 16 -20 32 4 40 11 3 20 12 20
19 0 16 21 36 32 30 4 -3 6 -10 3 -15z m-491 -14 c-4 -8 -8 -15 -10 -15 -2 0
-4 7 -4 15 0 8 4 15 10 15 5 0 7 -7 4 -15z m41 -42 c-14 -21 -15 -27 -4 -34
21 -13 29 -11 35 9 16 51 36 84 45 75 10 -10 -17 -74 -33 -81 -4 -2 -5 -9 -3
-15 11 -30 -11 -39 -75 -32 l-62 7 6 36 c3 19 11 40 17 46 9 8 10 4 7 -16 -9
-47 25 -34 52 20 17 34 25 42 28 29 2 -10 -4 -30 -13 -44z m306 41 c29 -35
-10 -147 -61 -177 -54 -32 -110 -13 -110 37 0 34 39 118 64 138 27 22 89 23
107 2z m-1166 -243 c-3 -12 -10 -21 -15 -21 -14 0 -21 32 -9 47 16 19 33 1 24
-26z m609 -2634 c11 -5 38 -11 62 -13 23 -2 59 -9 80 -17 106 -38 223 -67 275
-67 22 0 42 -7 50 -17 13 -15 11 -16 -16 -9 -16 4 -64 11 -105 16 -154 18
-283 50 -362 91 -10 5 -29 9 -43 9 -15 0 -24 4 -21 9 4 5 0 12 -6 14 -7 3 5 3
27 0 22 -3 49 -10 59 -16z"/>
<path d="M14303 17313 c9 -2 23 -2 30 0 6 3 -1 5 -18 5 -16 0 -22 -2 -12 -5z"/>
<path d="M14076 17240 c-18 -6 -18 -7 -2 -13 25 -10 46 -9 46 2 0 13 -22 19
-44 11z"/>
<path d="M15776 17061 c-4 -5 3 -7 14 -4 23 6 26 13 6 13 -8 0 -17 -4 -20 -9z"/>
<path d="M18210 14165 c0 -5 5 -17 10 -25 5 -8 10 -10 10 -5 0 6 -5 17 -10 25
-5 8 -10 11 -10 5z"/>
<path d="M13108 10165 c-35 -20 -44 -50 -23 -82 15 -23 22 -25 66 -21 57 6 57
6 68 46 18 62 -43 93 -111 57z"/>
<path d="M13659 9971 c-18 -15 -21 -22 -13 -31 17 -17 48 -8 52 14 6 30 -12
39 -39 17z"/>
<path d="M10324 7384 c-9 -34 10 -46 56 -38 34 5 78 34 52 34 -7 0 -12 7 -12
15 0 11 -12 15 -45 15 -40 0 -45 -3 -51 -26z"/>
<path d="M13731 7330 c-47 -56 -53 -80 -23 -80 30 0 101 87 85 104 -14 13 -39
4 -62 -24z"/>
<path d="M13476 7120 c-41 -46 -45 -72 -14 -94 33 -23 50 -20 96 20 63 54 56
114 -14 114 -24 0 -40 -9 -68 -40z"/>
<path d="M12820 6574 c-45 -32 -56 -68 -27 -94 24 -23 26 -23 64 -9 49 18 73
49 73 91 0 37 -1 38 -37 38 -24 -1 -51 -10 -73 -26z"/>
<path d="M12593 6384 c-51 -24 -68 -49 -40 -60 23 -9 107 35 107 56 0 29 -11
30 -67 4z"/>
<path d="M11958 6203 c-11 -3 -18 -14 -18 -29 0 -30 10 -30 38 -1 33 35 28 43
-20 30z"/>
<path d="M11722 6213 c-21 -8 -44 -63 -38 -89 5 -19 13 -24 39 -24 49 0 95 58
82 101 -6 19 -51 25 -83 12z"/>
</g>
</svg>
